<mxfile host="app.diagrams.net" modified="2021-07-23T08:07:59.412Z" agent="5.0 (Windows NT 10.0; Win64; x64) AppleWebKit/537.36 (KHTML, like Gecko) Chrome/91.0.4472.124 Safari/537.36" etag="mrIvJI6cOAnu6zVw8WU2" version="14.9.0" type="github">
  <diagram id="vtXOpG4c-sy9VI6VJMDt" name="Page-1">
    <mxGraphModel dx="1497" dy="928" grid="1" gridSize="10" guides="1" tooltips="1" connect="1" arrows="1" fold="1" page="1" pageScale="1" pageWidth="827" pageHeight="1169" math="0" shadow="0">
      <root>
        <mxCell id="0" />
        <mxCell id="1" parent="0" />
        <mxCell id="Fv16mk16VUE0EgvxlvGs-82" value="Contract" style="shape=umlLifeline;perimeter=lifelinePerimeter;whiteSpace=wrap;html=1;container=1;collapsible=0;recursiveResize=0;outlineConnect=0;fillColor=#dae8fc;strokeColor=#6c8ebf;" vertex="1" parent="1">
          <mxGeometry x="400" y="40" width="80" height="480" as="geometry" />
        </mxCell>
        <mxCell id="Fv16mk16VUE0EgvxlvGs-83" value="" style="html=1;points=[];perimeter=orthogonalPerimeter;fillColor=#fff2cc;strokeColor=#d6b656;" vertex="1" parent="1">
          <mxGeometry x="435" y="120" width="10" height="300" as="geometry" />
        </mxCell>
        <mxCell id="Fv16mk16VUE0EgvxlvGs-90" value="Contract&amp;amp;Workflow service" style="shape=umlLifeline;perimeter=lifelinePerimeter;whiteSpace=wrap;html=1;container=1;collapsible=0;recursiveResize=0;outlineConnect=0;fillColor=#f8cecc;strokeColor=#b85450;" vertex="1" parent="1">
          <mxGeometry x="880" y="40" width="80" height="480" as="geometry" />
        </mxCell>
        <mxCell id="Fv16mk16VUE0EgvxlvGs-91" value="" style="html=1;points=[];perimeter=orthogonalPerimeter;fillColor=#fff2cc;strokeColor=#d6b656;" vertex="1" parent="Fv16mk16VUE0EgvxlvGs-90">
          <mxGeometry x="35" y="170" width="10" height="20" as="geometry" />
        </mxCell>
        <mxCell id="Fv16mk16VUE0EgvxlvGs-78" value="Contract Update Strategy" style="shape=umlLifeline;perimeter=lifelinePerimeter;whiteSpace=wrap;html=1;container=1;collapsible=0;recursiveResize=0;outlineConnect=0;fillColor=#dae8fc;strokeColor=#6c8ebf;" vertex="1" parent="1">
          <mxGeometry x="640" y="40" width="80" height="480" as="geometry" />
        </mxCell>
        <mxCell id="Fv16mk16VUE0EgvxlvGs-79" value="Proposal Change Request Proxy" style="shape=umlLifeline;perimeter=lifelinePerimeter;whiteSpace=wrap;html=1;container=1;collapsible=0;recursiveResize=0;outlineConnect=0;fillColor=#dae8fc;strokeColor=#6c8ebf;" vertex="1" parent="1">
          <mxGeometry x="1000" y="40" width="80" height="480" as="geometry" />
        </mxCell>
        <mxCell id="Fv16mk16VUE0EgvxlvGs-1" value="proposal ID" style="html=1;verticalAlign=bottom;startArrow=circle;startFill=1;endArrow=open;startSize=6;endSize=8;" edge="1" parent="1" target="Fv16mk16VUE0EgvxlvGs-3">
          <mxGeometry x="0.1034" width="80" relative="1" as="geometry">
            <mxPoint x="80" y="100" as="sourcePoint" />
            <mxPoint x="160" y="120.00000000000001" as="targetPoint" />
            <mxPoint as="offset" />
          </mxGeometry>
        </mxCell>
        <mxCell id="Fv16mk16VUE0EgvxlvGs-2" value="Proposal Update Consumer" style="shape=umlLifeline;perimeter=lifelinePerimeter;whiteSpace=wrap;html=1;container=1;collapsible=0;recursiveResize=0;outlineConnect=0;fillColor=#dae8fc;strokeColor=#6c8ebf;" vertex="1" parent="1">
          <mxGeometry x="160" y="40" width="80" height="480" as="geometry" />
        </mxCell>
        <mxCell id="Fv16mk16VUE0EgvxlvGs-3" value="" style="html=1;points=[];perimeter=orthogonalPerimeter;fillColor=#fff2cc;strokeColor=#d6b656;" vertex="1" parent="Fv16mk16VUE0EgvxlvGs-2">
          <mxGeometry x="35" y="50" width="10" height="40" as="geometry" />
        </mxCell>
        <mxCell id="Fv16mk16VUE0EgvxlvGs-12" value="Contract Change Context" style="shape=umlLifeline;perimeter=lifelinePerimeter;whiteSpace=wrap;html=1;container=1;collapsible=0;recursiveResize=0;outlineConnect=0;fillColor=#dae8fc;strokeColor=#6c8ebf;" vertex="1" parent="1">
          <mxGeometry x="520" y="40" width="80" height="480" as="geometry" />
        </mxCell>
        <mxCell id="Fv16mk16VUE0EgvxlvGs-13" value="" style="html=1;points=[];perimeter=orthogonalPerimeter;fillColor=#fff2cc;strokeColor=#d6b656;" vertex="1" parent="Fv16mk16VUE0EgvxlvGs-12">
          <mxGeometry x="35" y="140" width="10" height="130" as="geometry" />
        </mxCell>
        <mxCell id="Fv16mk16VUE0EgvxlvGs-93" value="" style="html=1;points=[];perimeter=orthogonalPerimeter;fillColor=#ffe6cc;strokeColor=#d79b00;" vertex="1" parent="Fv16mk16VUE0EgvxlvGs-12">
          <mxGeometry x="39" y="220" width="10" height="40" as="geometry" />
        </mxCell>
        <mxCell id="Fv16mk16VUE0EgvxlvGs-94" value="generate change details" style="edgeStyle=orthogonalEdgeStyle;html=1;align=left;spacingLeft=2;endArrow=block;rounded=0;entryX=1;entryY=0;" edge="1" target="Fv16mk16VUE0EgvxlvGs-93" parent="Fv16mk16VUE0EgvxlvGs-12" source="Fv16mk16VUE0EgvxlvGs-13">
          <mxGeometry relative="1" as="geometry">
            <mxPoint x="80" y="210" as="sourcePoint" />
            <Array as="points">
              <mxPoint x="80" y="200" />
              <mxPoint x="80" y="220" />
            </Array>
          </mxGeometry>
        </mxCell>
        <mxCell id="Fv16mk16VUE0EgvxlvGs-4" value="Product Service" style="shape=umlLifeline;perimeter=lifelinePerimeter;whiteSpace=wrap;html=1;container=1;collapsible=0;recursiveResize=0;outlineConnect=0;fillColor=#f8cecc;strokeColor=#b85450;" vertex="1" parent="1">
          <mxGeometry x="760" y="40" width="80" height="480" as="geometry" />
        </mxCell>
        <mxCell id="Fv16mk16VUE0EgvxlvGs-81" value="" style="html=1;points=[];perimeter=orthogonalPerimeter;fillColor=#fff2cc;strokeColor=#d6b656;" vertex="1" parent="Fv16mk16VUE0EgvxlvGs-4">
          <mxGeometry x="35" y="150" width="10" height="20" as="geometry" />
        </mxCell>
        <mxCell id="Fv16mk16VUE0EgvxlvGs-36" value="Proposal" style="shape=umlLifeline;perimeter=lifelinePerimeter;whiteSpace=wrap;html=1;container=1;collapsible=0;recursiveResize=0;outlineConnect=0;fillColor=#dae8fc;strokeColor=#6c8ebf;" vertex="1" parent="1">
          <mxGeometry x="280" y="40" width="80" height="480" as="geometry" />
        </mxCell>
        <mxCell id="Fv16mk16VUE0EgvxlvGs-11" value="" style="html=1;points=[];perimeter=orthogonalPerimeter;fillColor=#fff2cc;strokeColor=#d6b656;" vertex="1" parent="Fv16mk16VUE0EgvxlvGs-36">
          <mxGeometry x="35" y="70" width="10" height="390" as="geometry" />
        </mxCell>
        <mxCell id="Fv16mk16VUE0EgvxlvGs-14" value="&lt;span style=&quot;font-size: 8px&quot;&gt;build proposal update context&lt;/span&gt;" style="html=1;verticalAlign=bottom;endArrow=block;" edge="1" parent="1" source="Fv16mk16VUE0EgvxlvGs-83" target="Fv16mk16VUE0EgvxlvGs-13">
          <mxGeometry width="80" relative="1" as="geometry">
            <mxPoint x="205" y="215" as="sourcePoint" />
            <mxPoint x="515" y="215" as="targetPoint" />
            <Array as="points">
              <mxPoint x="520" y="190" />
            </Array>
            <mxPoint as="offset" />
          </mxGeometry>
        </mxCell>
        <mxCell id="Fv16mk16VUE0EgvxlvGs-15" value="" style="html=1;verticalAlign=bottom;endArrow=open;dashed=1;endSize=8;" edge="1" parent="1" source="Fv16mk16VUE0EgvxlvGs-13" target="Fv16mk16VUE0EgvxlvGs-83">
          <mxGeometry y="-10" relative="1" as="geometry">
            <mxPoint x="380" y="250" as="sourcePoint" />
            <mxPoint x="220" y="249" as="targetPoint" />
            <Array as="points">
              <mxPoint x="530" y="310" />
            </Array>
            <mxPoint as="offset" />
          </mxGeometry>
        </mxCell>
        <mxCell id="Fv16mk16VUE0EgvxlvGs-52" value="execute" style="html=1;verticalAlign=bottom;endArrow=block;" edge="1" parent="1" source="Fv16mk16VUE0EgvxlvGs-3" target="Fv16mk16VUE0EgvxlvGs-11">
          <mxGeometry width="80" relative="1" as="geometry">
            <mxPoint x="240" y="200" as="sourcePoint" />
            <mxPoint x="320" y="200" as="targetPoint" />
            <Array as="points">
              <mxPoint x="270" y="120" />
            </Array>
          </mxGeometry>
        </mxCell>
        <mxCell id="Fv16mk16VUE0EgvxlvGs-53" value="" style="html=1;verticalAlign=bottom;endArrow=open;dashed=1;endSize=8;" edge="1" parent="1" source="Fv16mk16VUE0EgvxlvGs-11" target="Fv16mk16VUE0EgvxlvGs-84">
          <mxGeometry relative="1" as="geometry">
            <mxPoint x="195" y="190" as="sourcePoint" />
            <mxPoint x="-35" y="190" as="targetPoint" />
            <Array as="points">
              <mxPoint x="430" y="490" />
            </Array>
          </mxGeometry>
        </mxCell>
        <mxCell id="Fv16mk16VUE0EgvxlvGs-54" value="Update Proposal Change Request Status" style="edgeLabel;html=1;align=center;verticalAlign=middle;resizable=0;points=[];" vertex="1" connectable="0" parent="Fv16mk16VUE0EgvxlvGs-53">
          <mxGeometry x="0.2258" y="2" relative="1" as="geometry">
            <mxPoint x="20" y="-12" as="offset" />
          </mxGeometry>
        </mxCell>
        <mxCell id="Fv16mk16VUE0EgvxlvGs-80" value="get item change attributes" style="html=1;verticalAlign=bottom;endArrow=block;" edge="1" parent="1" source="Fv16mk16VUE0EgvxlvGs-13" target="Fv16mk16VUE0EgvxlvGs-81">
          <mxGeometry width="80" relative="1" as="geometry">
            <mxPoint x="560" y="240" as="sourcePoint" />
            <mxPoint x="750" y="240" as="targetPoint" />
            <Array as="points">
              <mxPoint x="670" y="200" />
            </Array>
          </mxGeometry>
        </mxCell>
        <mxCell id="Fv16mk16VUE0EgvxlvGs-84" value="" style="html=1;points=[];perimeter=orthogonalPerimeter;fillColor=#fff2cc;strokeColor=#d6b656;" vertex="1" parent="1">
          <mxGeometry x="1035" y="470" width="10" height="40" as="geometry" />
        </mxCell>
        <mxCell id="Fv16mk16VUE0EgvxlvGs-88" value="Loop execute" style="html=1;verticalAlign=bottom;endArrow=block;" edge="1" parent="1" source="Fv16mk16VUE0EgvxlvGs-11" target="Fv16mk16VUE0EgvxlvGs-83">
          <mxGeometry width="80" relative="1" as="geometry">
            <mxPoint x="374" y="140" as="sourcePoint" />
            <mxPoint x="454" y="140" as="targetPoint" />
            <Array as="points">
              <mxPoint x="400" y="130" />
            </Array>
          </mxGeometry>
        </mxCell>
        <mxCell id="Fv16mk16VUE0EgvxlvGs-89" value="return" style="html=1;verticalAlign=bottom;endArrow=open;dashed=1;endSize=8;" edge="1" parent="1" source="Fv16mk16VUE0EgvxlvGs-83" target="Fv16mk16VUE0EgvxlvGs-11">
          <mxGeometry relative="1" as="geometry">
            <mxPoint x="460" y="390" as="sourcePoint" />
            <mxPoint x="380" y="390" as="targetPoint" />
            <Array as="points">
              <mxPoint x="420" y="410" />
            </Array>
          </mxGeometry>
        </mxCell>
        <mxCell id="Fv16mk16VUE0EgvxlvGs-92" value="get All active proposals(in progress, apprved)" style="html=1;verticalAlign=bottom;endArrow=block;" edge="1" parent="1" source="Fv16mk16VUE0EgvxlvGs-13" target="Fv16mk16VUE0EgvxlvGs-91">
          <mxGeometry x="-0.2571" width="80" relative="1" as="geometry">
            <mxPoint x="590" y="220" as="sourcePoint" />
            <mxPoint x="820" y="220" as="targetPoint" />
            <Array as="points">
              <mxPoint x="695" y="220" />
            </Array>
            <mxPoint as="offset" />
          </mxGeometry>
        </mxCell>
        <mxCell id="Fv16mk16VUE0EgvxlvGs-96" value="call update strategy" style="edgeStyle=orthogonalEdgeStyle;html=1;align=left;spacingLeft=2;endArrow=block;rounded=0;entryX=1;entryY=0;" edge="1" target="Fv16mk16VUE0EgvxlvGs-95" parent="1" source="Fv16mk16VUE0EgvxlvGs-83">
          <mxGeometry relative="1" as="geometry">
            <mxPoint x="445" y="340" as="sourcePoint" />
            <Array as="points">
              <mxPoint x="475" y="330" />
              <mxPoint x="475" y="350" />
            </Array>
          </mxGeometry>
        </mxCell>
        <mxCell id="Fv16mk16VUE0EgvxlvGs-95" value="" style="html=1;points=[];perimeter=orthogonalPerimeter;fillColor=#ffe6cc;strokeColor=#d79b00;" vertex="1" parent="1">
          <mxGeometry x="440" y="350" width="10" height="40" as="geometry" />
        </mxCell>
      </root>
    </mxGraphModel>
  </diagram>
</mxfile>
